<?xml version="1.0" encoding="utf-8"?>
<!-- Generator: Adobe Illustrator 24.3.0, SVG Export Plug-In . SVG Version: 6.00 Build 0)  -->
<svg version="1.1" id="BlindBend-Blanc" xmlns="http://www.w3.org/2000/svg" xmlns:xlink="http://www.w3.org/1999/xlink" x="0px"
	 y="0px" viewBox="0 0 789.9 498.5" style="enable-background:new 0 0 789.9 498.5;" xml:space="preserve">
<style type="text/css">
	.st0{fill:#0074E4;}
	.st1{font-family:'ArialNova-Light';}
	.st2{font-size:22.95px;}
	.st3{letter-spacing:1;}
	.st4{letter-spacing:2;}
	.st5{fill:none;stroke:#0074E4;stroke-width:1.5;stroke-miterlimit:10;}
	.st6{fill:none;stroke:#0074E4;stroke-width:0.9;stroke-miterlimit:10;}
	.st7{fill:none;stroke:#0074E4;stroke-width:0.4;stroke-miterlimit:10;}
</style>
<text transform="matrix(1 0 0 1 726.21 491.97)" class="st0 st1 st2 st3">S</text>
<text transform="matrix(1 0 0 1 737.09 491.97)" class="st0 st1 st2 st4">tudio</text>
<path class="st0" d="M0,417.5c4.7-0.6,9.4-1,14.1-1c11.4,0,17.7,4.1,17.7,11.5c0,4.1-1.7,6.6-6,8.9c5.3,1.5,8.2,5.3,8.2,10.6
	s-3.3,9.5-9.2,11.2c-3.5,0.9-7.1,1.3-10.6,1.2c-4.7,0-9.4-0.3-14.1-1V417.5z M11,434.5h5.5c1.9,0,4.1-2.6,4.1-4.8
	c0-3.4-2.4-5.4-6.5-5.4c-0.6,0-1.9,0.1-3.1,0.2V434.5z M11,452.1c0.5,0.1,1,0.1,1.2,0.1c0.7,0.1,1.5,0.1,2.3,0.1h1.1
	c4.2,0,6.7-2,6.7-5.2c0-3.7-2.8-5.7-7.8-5.7H11V452.1z"/>
<path class="st0" d="M87.8,449.9h17.5l-1.2,9.6H76.3v-42.3h11.5V449.9z"/>
<path class="st0" d="M165.1,460.3h-11.5v-42.3h11.5V460.3z"/>
<path class="st0" d="M218.3,417.2l21.9,24.1L240,418h10.8v41.4l-7.4,1.6l-22-23.9l0.2,23.2h-10.8v-41.4L218.3,417.2z"/>
<path class="st0" d="M295.8,418.2c1.2-0.1,2.2-0.3,2.8-0.3c2.5-0.2,5-0.4,7.4-0.5h3.7c4.1,0.1,8.2,0.7,12.1,1.9
	c8.8,2.8,14,10.5,14,20.4c0,7-3.6,13.6-9.5,17.4c-3.8,2.3-9.7,3.5-17.2,3.5c-4.4,0-8.9-0.3-13.3-0.8V418.2z M307.2,451.7
	c0.4,0,0.7,0.1,0.9,0.1c0.7,0.1,1.4,0.1,2.1,0.1h1.1c7.6,0,12.3-4.6,12.3-12.2c0-4.5-2.3-8.8-6.2-11.2c-2.6-1.5-5-2-9.4-2h-0.8
	L307.2,451.7z"/>
<path class="st0" d="M488.9,418.4c4.7-0.6,9.4-1,14.1-1c11.4,0,17.7,4.1,17.7,11.5c0,4.1-1.8,6.6-6,8.9c5.3,1.5,8.2,5.3,8.2,10.6
	s-3.3,9.5-9.2,11.2c-3.5,0.9-7.1,1.3-10.6,1.2c-4.7,0-9.5-0.3-14.1-1V418.4z M499.9,435.3h5.5c1.9,0,4.1-2.6,4.1-4.8
	c0-3.4-2.4-5.4-6.5-5.4c-0.6,0-1.9,0.1-3.1,0.2L499.9,435.3z M499.9,452.9c0.5,0.1,1,0.1,1.2,0.1c0.7,0.1,1.5,0.1,2.3,0.1h1.1
	c4.2,0,6.7-2,6.7-5.2c0-3.7-2.8-5.7-7.8-5.7h-3.5L499.9,452.9z"/>
<path class="st0" d="M585.5,434h14.1v8.2h-14.1v8.8h18.5l-1,8.9h-28.6v-42.3h26.9v8.7h-15.7L585.5,434z"/>
<path class="st0" d="M666.1,416.9l21.9,24.1l-0.2-23.3h10.8v41.4l-7.4,1.6l-22-23.9l0.2,23.2h-10.8v-41.4L666.1,416.9z"/>
<path class="st0" d="M747,417.4c1.2-0.1,2.2-0.3,2.8-0.3c2.5-0.2,5-0.4,7.4-0.5h3.7c4.1,0.1,8.2,0.7,12.1,1.9
	c8.8,2.8,14,10.5,14,20.4c0,7-3.6,13.6-9.5,17.4c-3.7,2.3-9.7,3.5-17.2,3.5c-4.4,0-8.9-0.2-13.3-0.7V417.4z M758.5,450.9
	c0.4,0,0.7,0.1,0.9,0.1c0.7,0.1,1.4,0.2,2.1,0.1h1.1c7.6,0,12.3-4.6,12.3-12.2c0-4.5-2.3-8.8-6.2-11.2c-2.6-1.5-5-2-9.4-2h-0.8
	L758.5,450.9z"/>
<path class="st5" d="M526.3,1.4c-5-0.3-10.4-0.5-16-0.5l-12.3,0.1v52.2l4.2-0.1c17.6,0.7,19.8,9.5,19.8,24.7
	c0,20.2-5.4,24.3-27.4,24.3l-20.7,0.1c-0.8,0-1.4-0.7-1.4-1.5v-38h-0.1l0-61.7h-31.7c-17.2,0-31.2,15-31.3,33.4L409.3,184h0
	l-0.7,61.3l-0.3,31.3c-0.9,16.5-7.1,18.5-23.4,18.4c-21.8-0.2-26.1-5.2-25.9-25.9l0.3-29.6l19.4,0.1l0.4-56l-19.4-0.1l0.4-41.8
	l15.8,0.1l0.4-40.3l-31.1-0.2c-19.3-0.1-35,12.4-35.1,28.1l-0.1,11.9l0,0l-0.4,41.8l0,0l-0.5,61.5h-0.1l-0.3,27.2
	c-0.2,19.2-3.5,26-26,25.8c-22.1-0.2-27.5-8.2-27.4-27.4l0.3-31.6l23.1,0.2l0.5-56l-46.7-0.3c-19.9-0.1-36.1,12.9-36.3,29l-0.7,72.1
	c-0.4,46.9,8.4,72.4,75.3,72.9c34.1,0.2,58.5-5.2,61.4-37.9h2.9c5.6,29.3,28,35,62.5,35.3c59.6,0.4,70-25.5,70.4-69.5l0.3-30.5h43.4
	c50.1,0,77.1-8.4,77.2-70.4c0-31.3-5.8-53.8-39.6-56.6c-0.8-0.1-1.4-0.7-1.3-1.5c0-0.7,0.5-1.3,1.2-1.5c30.1-5.7,36-26.5,36-58.1
	C584.9,17.1,563.5,3.9,526.3,1.4 M496.6,198.7l-23,0.1c-0.8,0-1.4-0.7-1.4-1.5v-46.5c0-0.8,0.6-1.5,1.4-1.5c0,0,0,0,0,0l24.2-0.1
	c20.5,0,27.7,3.1,27.7,24C525.6,193.7,517.1,198.7,496.6,198.7L496.6,198.7z"/>
<path class="st0" d="M567.7,126c-0.8-0.1-1.4-0.9-1.3-1.7c0.1-0.6,0.5-1.1,1.2-1.3c30.1-5.7,36-26.5,36-58.1
	C603.6,9.5,575.9,0.1,529,0l-38.7,0.1l0,55.3l30.5-0.1c17.6,0.7,19.8,6.4,19.8,21.6c0,20.2-5.4,24.3-27.4,24.3l-20.7,0.1
	c-0.8,0-1.4-0.7-1.4-1.5v-38l0,0l0-61.7h-31.7c-17.2,0-31.2,15-31.3,33.4L428,183l0,0l-0.7,61.3l-0.3,31.3
	c-0.9,16.5-7.1,18.5-23.4,18.4c-21.8-0.2-26.1-5.2-25.9-25.9l0.3-26.5l19.4,0.1l0.4-59l-19.4-0.1l0.4-41.8l15.8,0.1l0.4-40.3
	l-31.1-0.2c-19.3-0.1-35,12.4-35.1,28.1l-0.1,11.9l0,0l-0.4,41.7l0,0l-0.5,61.5h-0.1l-0.3,27.2c-0.2,19.2-3.5,26-26,25.8
	c-22.1-0.2-27.5-8.2-27.4-27.4l0.3-28.5l23.1,0.2l0.5-59l-46.7-0.3c-19.9-0.1-36.1,12.9-36.3,29l-0.7,72.1
	c-0.4,46.9,8.4,72.4,75.3,72.9c34.1,0.2,58.5-5.2,61.4-37.9h2.9c5.6,29.3,28,35,62.5,35.3c59.6,0.4,70-25.5,70.4-69.5l0.3-30.5h43.4
	c50.1,0.1,77.1-8.4,77.2-70.4C607.3,151.3,601.5,128.9,567.7,126z M515.3,197.7l-23,0.1c-0.8,0-1.4-0.7-1.4-1.5v-46.5
	c0-0.8,0.6-1.5,1.4-1.5c0,0,0,0,0,0l24.2-0.1c20.5,0,27.7,3.1,27.7,24C544.3,192.7,535.8,197.8,515.3,197.7z"/>
<path class="st6" d="M437.1,412l-25.9-2l6.6-7.7l-7.7,6.6l-2-25.9l-2,25.9l-7.7-6.6l6.6,7.7l-25.9,2l25.9,2l-6.6,7.7l7.7-6.6l2,25.9
	l2-25.9l7.7,6.6l-6.6-7.7L437.1,412z M408.1,414c-1.1,0-2-0.9-2-2s0.9-2,2-2s2,0.9,2,2C410.1,413.1,409.2,414,408.1,414
	C408.1,414,408.1,414,408.1,414L408.1,414z"/>
<circle class="st6" cx="408.1" cy="412" r="22.1"/>
<path class="st7" d="M423.7,427.5l-12.9-15l7.7-0.6l-7.7-0.6l12.9-15l-15,12.9l-0.6-7.7l-0.6,7.7l-15-12.9l12.9,15l-7.7,0.6l7.7,0.6
	l-12.9,15l15-12.9l0.6,7.7l0.6-7.7L423.7,427.5z M407,413c-0.6-0.6-0.6-1.6,0-2.2c0.6-0.6,1.6-0.6,2.2,0c0.6,0.6,0.6,1.6,0,2.2
	c0,0,0,0,0,0C408.6,413.6,407.6,413.6,407,413z"/>
<circle class="st7" cx="408.1" cy="412" r="16.8"/>
</svg>
