<svg id="BlindBend-Blanc" xmlns="http://www.w3.org/2000/svg" viewBox="0 0 789.91 498.45"><defs><style>.cls-1{font-size:22.95px;font-family:TodaySHOP-XLight;font-weight:300;letter-spacing:0.07em;}.cls-1,.cls-3{fill:#fff;}.cls-2{letter-spacing:0.1em;}.cls-4,.cls-5,.cls-6{fill:none;stroke:#fff;stroke-miterlimit:10;}.cls-4{stroke-width:1.5px;}.cls-5{stroke-width:0.9px;}.cls-6{stroke-width:0.4px;}</style></defs><text class="cls-1" transform="translate(726.21 491.97)">S<tspan class="cls-2" x="10.88" y="0">tudio</tspan></text><path class="cls-3" d="M6833,7322.36a106.17,106.17,0,0,1,14.06-1c11.42,0,17.68,4.06,17.68,11.48,0,4.07-1.74,6.65-6,8.9,5.29,1.49,8.19,5.29,8.19,10.59s-3.29,9.48-9.16,11.22a39.66,39.66,0,0,1-10.65,1.23,88.57,88.57,0,0,1-14.12-1Zm11,16.91h5.49c1.87,0,4.13-2.65,4.13-4.84,0-3.42-2.39-5.36-6.52-5.36-.58,0-1.94.07-3.1.2Zm0,17.68c.52.06,1,.06,1.23.12.71.07,1.48.07,2.26.07h1.09c4.2,0,6.71-2,6.71-5.23,0-3.67-2.77-5.74-7.8-5.74H6844Z" transform="translate(-6833 -6904.81)"/><path class="cls-3" d="M6920.79,7354.69h17.49l-1.23,9.61h-27.74V7322h11.48Z" transform="translate(-6833 -6904.81)"/><path class="cls-3" d="M6998.07,7365.08h-11.49v-42.33h11.49Z" transform="translate(-6833 -6904.81)"/><path class="cls-3" d="M7051.27,7322l21.94,24.06-.2-23.29h10.78v41.42l-7.36,1.62-22-23.88.2,23.17h-10.78v-41.42Z" transform="translate(-6833 -6904.81)"/><path class="cls-3" d="M7128.75,7323c1.22-.13,2.19-.26,2.77-.26,2.52-.25,5-.38,7.36-.45h3.74a43,43,0,0,1,12.13,1.94c8.77,2.84,14,10.51,14,20.39a20.59,20.59,0,0,1-9.48,17.35c-3.75,2.32-9.68,3.55-17.23,3.55a124.62,124.62,0,0,1-13.29-.78Zm11.48,33.55c.39,0,.71.07.91.07a12.22,12.22,0,0,0,2.12.12h1.1c7.61,0,12.32-4.64,12.32-12.19a13.16,13.16,0,0,0-6.19-11.16c-2.58-1.48-5-2-9.42-2h-.84Z" transform="translate(-6833 -6904.81)"/><path class="cls-3" d="M7321.87,7323.23a106.4,106.4,0,0,1,14.07-1c11.42,0,17.68,4.06,17.68,11.46,0,4.06-1.75,6.64-6,8.89,5.29,1.49,8.19,5.29,8.19,10.57s-3.29,9.47-9.16,11.21a40.12,40.12,0,0,1-10.65,1.22,88.65,88.65,0,0,1-14.13-1Zm11,16.88h5.49c1.87,0,4.12-2.64,4.12-4.83,0-3.41-2.38-5.35-6.51-5.35-.58,0-1.94.07-3.1.2Zm0,17.65c.52.07,1,.07,1.23.13.71.07,1.48.07,2.26.07h1.09c4.2,0,6.71-2,6.71-5.22,0-3.67-2.77-5.73-7.8-5.73h-3.49Z" transform="translate(-6833 -6904.81)"/><path class="cls-3" d="M7418.54,7338.77h14.13V7347h-14.13v8.84h18.52l-1,8.9h-28.65v-42.32h26.9v8.71h-15.74Z" transform="translate(-6833 -6904.81)"/><path class="cls-3" d="M7499.15,7321.67l21.93,24.07-.19-23.29h10.77v41.42l-7.35,1.61-22-23.87.19,23.16h-10.77v-41.42Z" transform="translate(-6833 -6904.81)"/><path class="cls-3" d="M7580,7322.2c1.22-.13,2.19-.26,2.77-.26,2.52-.25,5-.38,7.36-.45h3.74a43,43,0,0,1,12.13,1.94c8.77,2.84,14,10.52,14,20.39a20.58,20.58,0,0,1-9.49,17.35c-3.74,2.32-9.67,3.55-17.22,3.55A127.13,127.13,0,0,1,7580,7364Zm11.48,33.55c.39,0,.71.07.91.07a11.29,11.29,0,0,0,2.12.13h1.1c7.61,0,12.32-4.65,12.32-12.2a13.17,13.17,0,0,0-6.19-11.16c-2.58-1.48-5-2-9.42-2h-.84Z" transform="translate(-6833 -6904.81)"/><path class="cls-4" d="M7359.28,6906.26c-5-.33-10.36-.48-16-.49l-12.34.13,0,52.24,4.16-.13c17.63.69,19.83,9.53,19.82,24.72,0,20.24-5.38,24.29-27.42,24.26l-20.74.12a1.48,1.48,0,0,1-1.42-1.53l0-38h-.08l.05-61.69-31.66,0c-17.25,0-31.24,14.95-31.26,33.44l-.12,149.44h-.05l-.71,61.29-.31,31.29c-.87,16.53-7.07,18.55-23.41,18.43-21.8-.16-26.11-5.21-25.93-25.87l.26-29.56,19.36.15.41-55.95-19.41-.14.36-41.79,15.79.11.35-40.29-31.12-.23c-19.26-.15-35,12.43-35.13,28.09l-.1,11.94h0l-.36,41.8h0l-.55,61.5h-.09l-.27,27.25c-.17,19.18-3.5,26-26,25.79-22.15-.16-27.53-8.17-27.36-27.36l.28-31.62,23.15.17.53-55.95-46.7-.34c-19.9-.14-36.15,12.85-36.29,29l-.67,72.15c-.42,46.94,8.44,72.39,75.28,72.88,34.15.25,58.54-5.19,61.37-37.94l2.9,0c5.56,29.26,28,35,62.54,35.29,59.58.43,70-25.48,70.37-69.46l.28-30.52h43.36c50.06.05,77.14-8.35,77.2-70.44,0-31.32-5.79-53.76-39.56-56.64a1.47,1.47,0,0,1-1.32-1.52,1.5,1.5,0,0,1,1.18-1.5c30.14-5.68,36-26.47,36-58.12,0-48.73-21.44-61.9-58.61-64.39m-29.66,197.25-22.95.11a1.48,1.48,0,0,1-1.42-1.53l0-46.55a1.47,1.47,0,0,1,1.42-1.53l24.21-.11c20.46,0,27.7,3.07,27.68,24C7358.59,7098.48,7350.08,7103.53,7329.62,7103.51Z" transform="translate(-6833 -6904.81)"/><path class="cls-3" d="M7400.7,7030.82a1.53,1.53,0,0,1-.14-3c30.14-5.69,36-26.48,36-58.13,0-55.34-27.65-64.82-74.57-64.87l-38.68.12-.05,55.34,30.5-.13c17.63.69,19.83,6.43,19.82,21.62,0,20.25-5.38,24.29-27.42,24.26l-20.74.12a1.48,1.48,0,0,1-1.42-1.53l0-38H7324l.05-61.69-31.66,0c-17.25,0-31.24,15-31.26,33.44l-.12,149.44h0l-.71,61.29-.31,31.29c-.87,16.53-7.07,18.55-23.41,18.43-21.8-.16-26.11-5.21-25.93-25.87l.26-26.45,19.36.14.41-59-19.41-.14.36-41.79,15.79.11.35-40.29-31.12-.23c-19.26-.15-35,12.43-35.13,28.09l-.1,11.94h0L7161,7087h0l-.55,61.49h-.09l-.27,27.25c-.17,19.19-3.5,25.95-26,25.79-22.15-.16-27.53-8.17-27.36-27.36l.28-28.52,23.15.17.53-59-46.7-.34c-19.9-.15-36.15,12.85-36.29,29l-.67,72.15c-.42,46.94,8.44,72.39,75.28,72.88,34.15.25,58.54-5.18,61.37-37.93l2.9,0c5.56,29.27,28,35,62.54,35.29,59.58.43,70-25.47,70.37-69.46l.28-30.52h43.36c50.06.06,77.14-8.35,77.2-70.44C7440.28,7056.14,7434.47,7033.7,7400.7,7030.82Zm-52.39,71.72-23,.11a1.48,1.48,0,0,1-1.42-1.53l0-46.55a1.47,1.47,0,0,1,1.42-1.53l24.21-.11c20.46,0,27.7,3.07,27.68,24C7377.28,7097.51,7368.77,7102.56,7348.31,7102.54Z" transform="translate(-6833 -6904.81)"/><path class="cls-5" d="M7270.09,7316.77l-25.94-2,6.61-7.69-7.7,6.61-2-25.94-2,25.94-7.7-6.61,6.61,7.69-25.94,2,25.94,2-6.61,7.69,7.7-6.6,2,25.94,2-25.94,7.7,6.6-6.61-7.69Zm-29,2a2,2,0,1,1,2-2A2,2,0,0,1,7241.09,7318.78Z" transform="translate(-6833 -6904.81)"/><circle class="cls-5" cx="408.1" cy="411.96" r="22.15"/><path class="cls-6" d="M7256.66,7332.34l-12.87-15,7.68-.58-7.68-.59,12.87-15-15,12.87-.58-7.67-.58,7.67-15-12.87,12.87,15-7.68.59,7.68.58-12.87,15,15-12.87.58,7.68.58-7.68ZM7240,7317.85a1.53,1.53,0,1,1,2.16,0A1.53,1.53,0,0,1,7240,7317.85Z" transform="translate(-6833 -6904.81)"/><circle class="cls-6" cx="408.1" cy="411.96" r="16.82"/></svg>